<svg xmlns="http://www.w3.org/2000/svg" width="172" height="31" viewBox="0 0 172 31"><defs><style>.a{fill:#f05e4e;}.b{fill:#b23232;}.c{fill:#6cc294;}.d{fill:#4b9f71;}.e{fill:#f3de3c;}.f{fill:#cdaf31;}.g{fill:#19abd6;}.h{fill:#314152;}</style></defs><g transform="translate(-4.407 -4.353)"><path class="a" d="M130.915,63.712h.05l7.894-4.047c-2.348-1.549-14.714-7.494-19.51-2.448-.325.325-.65.674-.949,1.024A23.855,23.855,0,0,1,130.915,63.712Z" transform="translate(-85.655 -38.632)"/><path class="b" d="M131.094,62.673l6.87-3.772c-6.2-2.523-9.693-1.774-13.665.674a6.868,6.868,0,0,0-.7.475A25.56,25.56,0,0,1,131.094,62.673Z" transform="translate(-89.557 -40.178)"/><path class="c" d="M90.9,40.337a28.726,28.726,0,0,1,13.465,2.4h.025s2.3-1.8,5.671-4.147c3.372-2.323,5.571-4,5.571-4-1.749-1.2-6.02-2.3-8.693-2.673C98.993,30.795,92.5,34.692,89.9,40.412,90.25,40.387,90.574,40.362,90.9,40.337Z" transform="translate(-64.136 -20.817)"/><path class="d" d="M85.5,40.433a29.893,29.893,0,0,1,10.642,1.3l3.123-9.867c-7.644-.25-14.264,3.5-16.512,8.693a.355.355,0,0,0-.05.15C83.6,40.583,84.549,40.483,85.5,40.433Z" transform="translate(-58.735 -20.9)"/><path class="e" d="M57.66,19.8a32.219,32.219,0,0,1,8.618.774l4.4-16.138A29.409,29.409,0,0,0,59.983,5.614C50.066,8.586,44.22,16.006,45.869,22.875A29.765,29.765,0,0,1,57.66,19.8Z" transform="translate(-30.897)"/><path class="f" d="M57.661,27.94a33.729,33.729,0,0,1,3.9.025L56.162,15.2c-7.544,3.547-11.716,9.867-10.292,15.813A29.765,29.765,0,0,1,57.661,27.94Z" transform="translate(-30.898 -8.137)"/><path class="g" d="M26.763,21.489c.5-.025,1.024-.025,1.524-.05a68.64,68.64,0,0,0-3.772-7.644C21.967,9.4,20.368,6.6,20.368,6.6,16.6,8,12,10.422,9.326,13.07,3.456,18.916,2.956,26.035,7.2,31.331,10.55,25.935,17.97,21.963,26.763,21.489Z" transform="translate(0 -1.686)"/><path class="h" d="M248.008,38.8l-7.944,20.784a1.322,1.322,0,0,1-1.349.924h-3.422a1.342,1.342,0,0,1-1.349-.924L226,38.8h4.047l5.346,15.213c.3.824.724,2.1,1.3,3.8h.575l1.349-3.8L243.986,38.8Z" transform="translate(-166.51 -26.704)"/><path class="h" d="M335.847,60.533H332.1V38.8h3.747Z" transform="translate(-246.192 -26.704)"/><path class="h" d="M381.766,51.813l-6.245-1.424a6.762,6.762,0,0,1-3.8-2,6.3,6.3,0,0,1-1.124-4.047c0-2.4.65-3.847,1.924-4.671S376,38.9,379.118,38.9h9.118v2.8h-8.568a12.745,12.745,0,0,0-4.322.4c-.674.3-1.024,1-1.024,2.273a2.673,2.673,0,0,0,.7,2.148,5.9,5.9,0,0,0,2.473.974l6.345,1.424a7.525,7.525,0,0,1,3.847,1.973,5.748,5.748,0,0,1,1.174,4c0,2.523-.625,3.847-2.023,4.671s-3.273,1.1-7.244,1.1h-8.269v-2.9h7.519a15,15,0,0,0,5.1-.575,2.126,2.126,0,0,0,1.3-2.273,2.321,2.321,0,0,0-.774-2.023A7.149,7.149,0,0,0,381.766,51.813Z" transform="translate(-275.154 -26.778)"/><path class="h" d="M470.1,37.15V40.2c2.9-2.4,5.721-3.6,8.419-3.6,3.023,0,4.871,1.274,5.5,3.822,2.948-2.548,5.846-3.822,8.743-3.822a5.713,5.713,0,0,1,4.3,1.524,6.059,6.059,0,0,1,1.5,4.447V58.858H494.8V43.67a4.532,4.532,0,0,0-.824-2.923,3.253,3.253,0,0,0-2.573-.924,6.812,6.812,0,0,0-3.023.724,30.472,30.472,0,0,0-4.122,2.673V58.883h-3.647V43.67a4.286,4.286,0,0,0-.824-2.948,3.318,3.318,0,0,0-2.573-.9,6.63,6.63,0,0,0-3,.724A31.561,31.561,0,0,0,470.1,43.17V58.858h-3.8V37.15Z" transform="translate(-347.25 -25.054)"/><path class="h" d="M632.689,49.865H622.572c.2,2.5.824,4.172,1.824,5.046s2.7,1.049,5.046,1.049h7.544v2.9h-8.019c-3.747,0-6.42-.325-7.994-2.073-1.6-1.749-2.373-4.7-2.373-8.843,0-4.2.774-7.12,2.323-8.818,1.549-1.674,4.1-2.523,7.669-2.523,3.248,0,5.6.6,7.095,1.749a6.4,6.4,0,0,1,2.223,5.321C637.935,47.816,636.212,49.865,632.689,49.865Zm-10.167-2.948h9.193c1.574,0,2.373-1.074,2.373-3.223a3.6,3.6,0,0,0-1.249-3,7.045,7.045,0,0,0-4.1-.9c-2.3,0-3.872.5-4.771,1.5C623.072,42.321,622.572,44.194,622.522,46.917Z" transform="translate(-461.504 -25.054)"/><path class="h" d="M85.716,89.923l-4.9,3.422,1.774-5.221A6.9,6.9,0,0,0,80.82,87.9c-3.5,0-6.32,2.473-6.32,5.5,0,3.048,2.823,5.5,6.32,5.5s6.32-2.473,6.32-5.5A5.162,5.162,0,0,0,85.716,89.923Z" transform="translate(-52.583 -63.539)"/></g></svg>