<svg width="42" height="42" viewBox="0 0 42 42" fill="none" xmlns="http://www.w3.org/2000/svg">
<rect width="42" height="42" rx="12.6" fill="#314152"/>
<path fill-rule="evenodd" clip-rule="evenodd" d="M27.3368 21.0012C27.3368 21.6656 27.8824 22.2061 28.5529 22.2061C28.891 22.2061 29.1654 22.478 29.1654 22.813V24.9987C29.1654 26.8469 27.648 28.3504 25.7827 28.3504H16.2155C14.3502 28.3504 12.832 26.8469 12.832 24.9987V22.813C12.832 22.478 13.1064 22.2061 13.4445 22.2061C14.1158 22.2061 14.6614 21.6656 14.6614 21.0012C14.6614 20.3538 14.1379 19.8667 13.4445 19.8667C13.282 19.8667 13.1268 19.8028 13.0117 19.6887C12.8965 19.5746 12.832 19.42 12.832 19.2598L12.8337 17.0029C12.8337 15.1547 14.351 13.6504 16.2163 13.6504H25.7811C27.6464 13.6504 29.1645 15.1547 29.1645 17.0029L29.1654 19.1894C29.1654 19.3496 29.1008 19.505 28.9865 19.6183C28.8714 19.7324 28.7162 19.7963 28.5529 19.7963C27.8824 19.7963 27.3368 20.3368 27.3368 21.0012ZM22.8385 21.5297L23.8013 20.6007C23.9688 20.4405 24.0267 20.2042 23.9541 19.9857C23.8822 19.7672 23.6944 19.6118 23.4673 19.5803L22.137 19.3877L21.5416 18.1933C21.4395 17.9878 21.2321 17.8599 21.001 17.8591H20.9994C20.7691 17.8591 20.5616 17.987 20.4579 18.1925L19.8626 19.3877L18.5347 19.5795C18.3052 19.6118 18.1173 19.7672 18.0447 19.9857C17.9728 20.2042 18.0308 20.4405 18.1974 20.6007L19.1602 21.5297L18.9332 22.843C18.894 23.0696 18.9863 23.2945 19.1741 23.4297C19.2803 23.5049 19.4036 23.5438 19.5285 23.5438C19.6241 23.5438 19.7205 23.5203 19.8087 23.4742L20.9994 22.8543L22.1876 23.4726C22.3934 23.5818 22.6376 23.5648 22.8246 23.4289C23.0133 23.2945 23.1055 23.0696 23.0663 22.843L22.8385 21.5297Z" fill="#A0A5B8"/>
</svg>
